<svg width="16" height="8" viewBox="0 0 16 8" fill="none" xmlns="http://www.w3.org/2000/svg">
<path d="M15.8047 3.52733L12.6193 0.342C12.4287 0.151395 12.142 0.0943854 11.8929 0.197548C11.6438 0.300711 11.4814 0.543736 11.4813 0.813333V2.832C11.4813 2.92405 11.4067 2.99867 11.3147 2.99867H1C0.447715 2.99867 0 3.44638 0 3.99867C0 4.55095 0.447715 4.99867 1 4.99867H11.3147C11.4067 4.99867 11.4813 5.07329 11.4813 5.16533V7.184C11.4814 7.4536 11.6438 7.69662 11.8929 7.79979C12.142 7.90295 12.4287 7.84594 12.6193 7.65533L15.8047 4.47C16.0649 4.20967 16.0649 3.78767 15.8047 3.52733Z" fill="white"/>
</svg>
